<svg width="181" height="39" viewBox="0 0 181 39" fill="none" xmlns="http://www.w3.org/2000/svg">
<path d="M10.6358 29.252C8.78777 29.252 7.13177 28.952 5.66777 28.352C4.20377 27.752 3.02777 26.864 2.13977 25.688C1.27577 24.512 0.819766 23.096 0.771766 21.44H7.32377C7.41977 22.376 7.74377 23.096 8.29577 23.6C8.84777 24.08 9.56777 24.32 10.4558 24.32C11.3678 24.32 12.0878 24.116 12.6158 23.708C13.1438 23.276 13.4078 22.688 13.4078 21.944C13.4078 21.32 13.1918 20.804 12.7598 20.396C12.3518 19.988 11.8358 19.652 11.2118 19.388C10.6118 19.124 9.74777 18.824 8.61977 18.488C6.98777 17.984 5.65577 17.48 4.62377 16.976C3.59177 16.472 2.70377 15.728 1.95977 14.744C1.21577 13.76 0.843766 12.476 0.843766 10.892C0.843766 8.54 1.69577 6.704 3.39977 5.384C5.10377 4.04 7.32377 3.368 10.0598 3.368C12.8438 3.368 15.0878 4.04 16.7918 5.384C18.4958 6.704 19.4078 8.552 19.5278 10.928H12.8678C12.8198 10.112 12.5198 9.476 11.9678 9.02C11.4158 8.54 10.7078 8.3 9.84377 8.3C9.09977 8.3 8.49977 8.504 8.04377 8.912C7.58777 9.296 7.35977 9.86 7.35977 10.604C7.35977 11.42 7.74377 12.056 8.51177 12.512C9.27977 12.968 10.4798 13.46 12.1118 13.988C13.7438 14.54 15.0638 15.068 16.0718 15.572C17.1038 16.076 17.9918 16.808 18.7358 17.768C19.4798 18.728 19.8518 19.964 19.8518 21.476C19.8518 22.916 19.4798 24.224 18.7358 25.4C18.0158 26.576 16.9598 27.512 15.5678 28.208C14.1758 28.904 12.5318 29.252 10.6358 29.252ZM26.7362 6.824C25.6562 6.824 24.7682 6.512 24.0722 5.888C23.4002 5.24 23.0642 4.448 23.0642 3.512C23.0642 2.552 23.4002 1.76 24.0722 1.136C24.7682 0.487998 25.6562 0.163998 26.7362 0.163998C27.7922 0.163998 28.6562 0.487998 29.3282 1.136C30.0242 1.76 30.3722 2.552 30.3722 3.512C30.3722 4.448 30.0242 5.24 29.3282 5.888C28.6562 6.512 27.7922 6.824 26.7362 6.824ZM29.7962 8.912V29H23.6402V8.912H29.7962ZM41.8894 8.624C43.3054 8.624 44.5414 8.912 45.5974 9.488C46.6774 10.064 47.5054 10.82 48.0814 11.756V8.912H54.2374V28.964C54.2374 30.812 53.8654 32.48 53.1214 33.968C52.4014 35.48 51.2854 36.68 49.7734 37.568C48.2854 38.456 46.4254 38.9 44.1934 38.9C41.2174 38.9 38.8054 38.192 36.9574 36.776C35.1094 35.384 34.0534 33.488 33.7894 31.088H39.8734C40.0654 31.856 40.5214 32.456 41.2414 32.888C41.9614 33.344 42.8494 33.572 43.9054 33.572C45.1774 33.572 46.1854 33.2 46.9294 32.456C47.6974 31.736 48.0814 30.572 48.0814 28.964V26.12C47.4814 27.056 46.6534 27.824 45.5974 28.424C44.5414 29 43.3054 29.288 41.8894 29.288C40.2334 29.288 38.7334 28.868 37.3894 28.028C36.0454 27.164 34.9774 25.952 34.1854 24.392C33.4174 22.808 33.0334 20.984 33.0334 18.92C33.0334 16.856 33.4174 15.044 34.1854 13.484C34.9774 11.924 36.0454 10.724 37.3894 9.884C38.7334 9.044 40.2334 8.624 41.8894 8.624ZM48.0814 18.956C48.0814 17.42 47.6494 16.208 46.7854 15.32C45.9454 14.432 44.9134 13.988 43.6894 13.988C42.4654 13.988 41.4214 14.432 40.5574 15.32C39.7174 16.184 39.2974 17.384 39.2974 18.92C39.2974 20.456 39.7174 21.68 40.5574 22.592C41.4214 23.48 42.4654 23.924 43.6894 23.924C44.9134 23.924 45.9454 23.48 46.7854 22.592C47.6494 21.704 48.0814 20.492 48.0814 18.956ZM70.931 8.696C73.283 8.696 75.155 9.464 76.547 11C77.963 12.512 78.671 14.6 78.671 17.264V29H72.551V18.092C72.551 16.748 72.203 15.704 71.507 14.96C70.811 14.216 69.875 13.844 68.699 13.844C67.523 13.844 66.587 14.216 65.891 14.96C65.195 15.704 64.847 16.748 64.847 18.092V29H58.691V8.912H64.847V11.576C65.471 10.688 66.311 9.992 67.367 9.488C68.423 8.96 69.611 8.696 70.931 8.696ZM82.1208 24.068C82.9368 23.42 83.3088 23.12 83.2368 23.168C85.5888 21.224 87.4368 19.628 88.7808 18.38C90.1488 17.132 91.3008 15.824 92.2368 14.456C93.1728 13.088 93.6408 11.756 93.6408 10.46C93.6408 9.476 93.4128 8.708 92.9568 8.156C92.5008 7.604 91.8168 7.328 90.9048 7.328C89.9928 7.328 89.2728 7.676 88.7448 8.372C88.2408 9.044 87.9888 10.004 87.9888 11.252H82.0488C82.0968 9.212 82.5288 7.508 83.3448 6.14C84.1848 4.772 85.2768 3.764 86.6208 3.116C87.9888 2.468 89.5008 2.144 91.1568 2.144C94.0128 2.144 96.1608 2.876 97.6008 4.34C99.0648 5.804 99.7968 7.712 99.7968 10.064C99.7968 12.632 98.9208 15.02 97.1688 17.228C95.4168 19.412 93.1848 21.548 90.4728 23.636H100.193V28.64H82.1208V24.068ZM112.659 29.252C110.811 29.252 109.155 28.952 107.691 28.352C106.227 27.752 105.051 26.864 104.163 25.688C103.299 24.512 102.843 23.096 102.795 21.44H109.347C109.443 22.376 109.767 23.096 110.319 23.6C110.871 24.08 111.591 24.32 112.479 24.32C113.391 24.32 114.111 24.116 114.639 23.708C115.167 23.276 115.431 22.688 115.431 21.944C115.431 21.32 115.215 20.804 114.783 20.396C114.375 19.988 113.859 19.652 113.235 19.388C112.635 19.124 111.771 18.824 110.643 18.488C109.011 17.984 107.679 17.48 106.647 16.976C105.615 16.472 104.727 15.728 103.983 14.744C103.239 13.76 102.867 12.476 102.867 10.892C102.867 8.54 103.719 6.704 105.423 5.384C107.127 4.04 109.347 3.368 112.083 3.368C114.867 3.368 117.111 4.04 118.815 5.384C120.519 6.704 121.431 8.552 121.551 10.928H114.891C114.843 10.112 114.543 9.476 113.991 9.02C113.439 8.54 112.731 8.3 111.867 8.3C111.123 8.3 110.523 8.504 110.067 8.912C109.611 9.296 109.383 9.86 109.383 10.604C109.383 11.42 109.767 12.056 110.535 12.512C111.303 12.968 112.503 13.46 114.135 13.988C115.767 14.54 117.087 15.068 118.095 15.572C119.127 16.076 120.015 16.808 120.759 17.768C121.503 18.728 121.875 19.964 121.875 21.476C121.875 22.916 121.503 24.224 120.759 25.4C120.039 26.576 118.983 27.512 117.591 28.208C116.199 28.904 114.555 29.252 112.659 29.252ZM128.76 6.824C127.68 6.824 126.792 6.512 126.096 5.888C125.424 5.24 125.088 4.448 125.088 3.512C125.088 2.552 125.424 1.76 126.096 1.136C126.792 0.487998 127.68 0.163998 128.76 0.163998C129.816 0.163998 130.68 0.487998 131.352 1.136C132.048 1.76 132.396 2.552 132.396 3.512C132.396 4.448 132.048 5.24 131.352 5.888C130.68 6.512 129.816 6.824 128.76 6.824ZM131.82 8.912V29H125.664V8.912H131.82ZM143.913 8.624C145.329 8.624 146.565 8.912 147.621 9.488C148.701 10.064 149.529 10.82 150.105 11.756V8.912H156.261V28.964C156.261 30.812 155.889 32.48 155.145 33.968C154.425 35.48 153.309 36.68 151.797 37.568C150.309 38.456 148.449 38.9 146.217 38.9C143.241 38.9 140.829 38.192 138.981 36.776C137.133 35.384 136.077 33.488 135.813 31.088H141.897C142.089 31.856 142.545 32.456 143.265 32.888C143.985 33.344 144.873 33.572 145.929 33.572C147.201 33.572 148.209 33.2 148.953 32.456C149.721 31.736 150.105 30.572 150.105 28.964V26.12C149.505 27.056 148.677 27.824 147.621 28.424C146.565 29 145.329 29.288 143.913 29.288C142.257 29.288 140.757 28.868 139.413 28.028C138.069 27.164 137.001 25.952 136.209 24.392C135.441 22.808 135.057 20.984 135.057 18.92C135.057 16.856 135.441 15.044 136.209 13.484C137.001 11.924 138.069 10.724 139.413 9.884C140.757 9.044 142.257 8.624 143.913 8.624ZM150.105 18.956C150.105 17.42 149.673 16.208 148.809 15.32C147.969 14.432 146.937 13.988 145.713 13.988C144.489 13.988 143.445 14.432 142.581 15.32C141.741 16.184 141.321 17.384 141.321 18.92C141.321 20.456 141.741 21.68 142.581 22.592C143.445 23.48 144.489 23.924 145.713 23.924C146.937 23.924 147.969 23.48 148.809 22.592C149.673 21.704 150.105 20.492 150.105 18.956ZM172.954 8.696C175.306 8.696 177.178 9.464 178.57 11C179.986 12.512 180.694 14.6 180.694 17.264V29H174.574V18.092C174.574 16.748 174.226 15.704 173.53 14.96C172.834 14.216 171.898 13.844 170.722 13.844C169.546 13.844 168.61 14.216 167.914 14.96C167.218 15.704 166.87 16.748 166.87 18.092V29H160.714V8.912H166.87V11.576C167.494 10.688 168.334 9.992 169.39 9.488C170.446 8.96 171.634 8.696 172.954 8.696Z" fill="#00AA13"/>
</svg>
